<?xml version="1.0" encoding="iso-8859-1"?>
<!-- Generator: Adobe Illustrator 16.0.0, SVG Export Plug-In . SVG Version: 6.00 Build 0)  -->
<!DOCTYPE svg PUBLIC "-//W3C//DTD SVG 1.1//EN" "http://www.w3.org/Graphics/SVG/1.1/DTD/svg11.dtd">
<svg version="1.1" id="Layer_1" xmlns="http://www.w3.org/2000/svg" xmlns:xlink="http://www.w3.org/1999/xlink" x="0px" y="0px"
	 width="934px" height="819px" viewBox="0 0 934 819" enable-background="new 0 0 934 819" xml:space="preserve">
<rect x="104.56" y="69.112" transform="matrix(0.7071 0.7071 -0.7071 0.7071 124.8475 -72.1855)" fill="#FFFFFF" stroke="#F51810" stroke-width="3" stroke-miterlimit="10" width="89.999" height="91.001"/>
<line fill="none" stroke="#F51810" stroke-width="3" stroke-miterlimit="10" x1="149.5" y1="177" x2="149.5" y2="243"/>
<rect x="104.56" y="256.112" transform="matrix(0.7071 0.7071 -0.7071 0.7071 257.0759 -17.415)" fill="#FFFFFF" stroke="#F51810" stroke-width="3" stroke-miterlimit="10" width="89.999" height="91.001"/>
<line fill="none" stroke="#F51810" stroke-width="3" stroke-miterlimit="10" x1="149.5" y1="365" x2="149.5" y2="431"/>
<rect x="103.56" y="435.112" transform="matrix(0.7071 0.7071 -0.7071 0.7071 383.3547 35.7195)" fill="#FFFFFF" stroke="#F51810" stroke-width="3" stroke-miterlimit="10" width="89.999" height="91.001"/>
<line fill="none" stroke="#F51810" stroke-width="3" stroke-miterlimit="10" x1="148.5" y1="543" x2="148.5" y2="609"/>
<rect x="103.56" y="615.112" transform="matrix(0.7071 0.7071 -0.7071 0.7071 510.6334 88.4398)" fill="#FFFFFF" stroke="#F51810" stroke-width="3" stroke-miterlimit="10" width="89.999" height="91.001"/>
<rect x="113" y="93" fill="none" width="66" height="72"/>
<text transform="matrix(1 0 0 1 131.5 130.1494)" fill="#F51810" font-family="'Lato-Bold'" font-size="50">1</text>
<rect x="114" y="281" fill="none" width="66" height="72"/>
<text transform="matrix(1 0 0 1 132.5 318.1494)" fill="#F51810" font-family="'Lato-Bold'" font-size="50">2</text>
<rect x="114" y="461" fill="none" width="66" height="72"/>
<text transform="matrix(1 0 0 1 132.5 498.1494)" fill="#F51810" font-family="'Lato-Bold'" font-size="50">3</text>
<rect x="114" y="639" fill="none" width="66" height="72"/>
<text transform="matrix(1 0 0 1 132.5 676.1494)" fill="#F51810" font-family="'Lato-Bold'" font-size="50">4</text>
<rect x="280" y="77" fill="none" width="538" height="82"/>
<text transform="matrix(1 0 0 1 280 103.748)"><tspan x="0" y="0" fill="#9E9E9E" font-family="'Lato-Bold'" font-size="36">Lorem ipsum dolor </tspan><tspan x="0" y="43.2" fill="#9E9E9E" font-family="'Lato-Bold'" font-size="36">Nam vulputate cursus placerat.</tspan></text>
<rect x="283" y="260" fill="none" width="538" height="82"/>
<text transform="matrix(1 0 0 1 283 286.748)"><tspan x="0" y="0" fill="#9E9E9E" font-family="'Lato-Bold'" font-size="36">Lorem ipsum dolor </tspan><tspan x="0" y="43.199" fill="#9E9E9E" font-family="'Lato-Bold'" font-size="36">Nam vulputate cursus placerat.</tspan></text>
<rect x="281" y="436" fill="none" width="538" height="82"/>
<text transform="matrix(1 0 0 1 281 462.748)"><tspan x="0" y="0" fill="#9E9E9E" font-family="'Lato-Bold'" font-size="36">Lorem ipsum dolor </tspan><tspan x="0" y="43.199" fill="#9E9E9E" font-family="'Lato-Bold'" font-size="36">Nam vulputate cursus placerat.</tspan></text>
<rect x="279" y="620" fill="none" width="538" height="82"/>
<text transform="matrix(1 0 0 1 279 646.748)"><tspan x="0" y="0" fill="#9E9E9E" font-family="'Lato-Bold'" font-size="36">Lorem ipsum dolor </tspan><tspan x="0" y="43.199" fill="#9E9E9E" font-family="'Lato-Bold'" font-size="36">Nam vulputate cursus placerat.</tspan></text>
</svg>
